<svg xmlns="http://www.w3.org/2000/svg" viewBox="0 0 600 520" font-family="Segoe UI, Arial, sans-serif">
  <defs>
    <linearGradient id="rs_bg" x1="0%" y1="0%" x2="0%" y2="100%">
      <stop offset="0%" style="stop-color:#f8fafc"/>
      <stop offset="100%" style="stop-color:#f1f5f9"/>
    </linearGradient>
    <clipPath id="rs_clip"><rect x="80" y="50" width="460" height="380"/></clipPath>
  </defs>

  <rect width="600" height="520" rx="12" fill="url(#rs_bg)"/>

  <!-- Title -->
  <text x="310" y="30" text-anchor="middle" font-size="15" font-weight="700" fill="#1e293b">OSNR Estimation: True vs. Predicted</text>
  <text x="310" y="46" text-anchor="middle" font-size="10" fill="#64748b">MAE = 0.38 dB | RMSE = 0.52 dB | R² = 0.9971</text>

  <!-- Plot area -->
  <rect x="80" y="50" width="460" height="380" fill="#fff" stroke="#e2e8f0" stroke-width="1" rx="4"/>

  <!-- Grid lines -->
  <g stroke="#f1f5f9" stroke-width="1">
    <line x1="80" y1="126" x2="540" y2="126"/>
    <line x1="80" y1="202" x2="540" y2="202"/>
    <line x1="80" y1="278" x2="540" y2="278"/>
    <line x1="80" y1="354" x2="540" y2="354"/>
    <line x1="172" y1="50" x2="172" y2="430"/>
    <line x1="264" y1="50" x2="264" y2="430"/>
    <line x1="356" y1="50" x2="356" y2="430"/>
    <line x1="448" y1="50" x2="448" y2="430"/>
  </g>

  <!-- Ideal line (y=x) -->
  <line x1="80" y1="430" x2="540" y2="50" stroke="#1e293b" stroke-width="1.5" stroke-dasharray="6,4" opacity="0.5"/>

  <!-- Y-axis labels -->
  <text x="72" y="434" text-anchor="end" font-size="9" fill="#64748b">5</text>
  <text x="72" y="358" text-anchor="end" font-size="9" fill="#64748b">10</text>
  <text x="72" y="282" text-anchor="end" font-size="9" fill="#64748b">15</text>
  <text x="72" y="206" text-anchor="end" font-size="9" fill="#64748b">20</text>
  <text x="72" y="130" text-anchor="end" font-size="9" fill="#64748b">25</text>
  <text x="72" y="54" text-anchor="end" font-size="9" fill="#64748b">30</text>

  <!-- X-axis labels -->
  <text x="80" y="448" text-anchor="middle" font-size="9" fill="#64748b">5</text>
  <text x="172" y="448" text-anchor="middle" font-size="9" fill="#64748b">10</text>
  <text x="264" y="448" text-anchor="middle" font-size="9" fill="#64748b">15</text>
  <text x="356" y="448" text-anchor="middle" font-size="9" fill="#64748b">20</text>
  <text x="448" y="448" text-anchor="middle" font-size="9" fill="#64748b">25</text>
  <text x="540" y="448" text-anchor="middle" font-size="9" fill="#64748b">30</text>

  <!-- Axis titles -->
  <text x="310" y="475" text-anchor="middle" font-size="12" fill="#475569">True OSNR (dB)</text>
  <text x="22" y="240" text-anchor="middle" font-size="12" fill="#475569" transform="rotate(-90,22,240)">Predicted OSNR (dB)</text>

  <!-- Scatter points — OOK (indigo) -->
  <g fill="#2563eb" opacity="0.55" clip-path="url(#rs_clip)">
    <circle cx="82" cy="428" r="3.2"/><circle cx="92" cy="417" r="3.2"/><circle cx="101" cy="407" r="3.2"/>
    <circle cx="110" cy="399" r="3.2"/><circle cx="120" cy="388" r="3.2"/><circle cx="129" cy="379" r="3.2"/>
    <circle cx="138" cy="370" r="3.2"/><circle cx="148" cy="357" r="3.2"/><circle cx="157" cy="350" r="3.2"/>
    <circle cx="166" cy="339" r="3.2"/><circle cx="176" cy="327" r="3.2"/><circle cx="185" cy="321" r="3.2"/>
    <circle cx="194" cy="310" r="3.2"/><circle cx="204" cy="299" r="3.2"/><circle cx="213" cy="290" r="3.2"/>
    <circle cx="222" cy="281" r="3.2"/><circle cx="232" cy="270" r="3.2"/><circle cx="241" cy="262" r="3.2"/>
    <circle cx="250" cy="248" r="3.2"/><circle cx="260" cy="241" r="3.2"/><circle cx="269" cy="230" r="3.2"/>
    <circle cx="278" cy="222" r="3.2"/><circle cx="288" cy="209" r="3.2"/><circle cx="297" cy="201" r="3.2"/>
    <circle cx="306" cy="190" r="3.2"/><circle cx="316" cy="183" r="3.2"/><circle cx="325" cy="171" r="3.2"/>
    <circle cx="334" cy="164" r="3.2"/><circle cx="344" cy="153" r="3.2"/><circle cx="353" cy="142" r="3.2"/>
    <circle cx="362" cy="137" r="3.2"/><circle cx="372" cy="125" r="3.2"/><circle cx="381" cy="118" r="3.2"/>
    <circle cx="390" cy="108" r="3.2"/><circle cx="400" cy="97" r="3.2"/><circle cx="409" cy="92" r="3.2"/>
    <circle cx="430" cy="80" r="3.2"/><circle cx="440" cy="73" r="3.2"/><circle cx="460" cy="65" r="3.2"/>
    <circle cx="480" cy="60" r="3.2"/><circle cx="500" cy="56" r="3.2"/><circle cx="530" cy="52" r="3.2"/>
  </g>

  <!-- Scatter points — DPSK (blue) -->
  <g fill="#2563eb" opacity="0.55" clip-path="url(#rs_clip)">
    <circle cx="85" cy="426" r="3.2"/><circle cx="95" cy="418" r="3.2"/><circle cx="105" cy="405" r="3.2"/>
    <circle cx="114" cy="396" r="3.2"/><circle cx="123" cy="385" r="3.2"/><circle cx="133" cy="377" r="3.2"/>
    <circle cx="142" cy="366" r="3.2"/><circle cx="152" cy="358" r="3.2"/><circle cx="161" cy="346" r="3.2"/>
    <circle cx="170" cy="338" r="3.2"/><circle cx="180" cy="330" r="3.2"/><circle cx="189" cy="318" r="3.2"/>
    <circle cx="198" cy="308" r="3.2"/><circle cx="208" cy="298" r="3.2"/><circle cx="217" cy="291" r="3.2"/>
    <circle cx="226" cy="278" r="3.2"/><circle cx="236" cy="269" r="3.2"/><circle cx="245" cy="258" r="3.2"/>
    <circle cx="254" cy="250" r="3.2"/><circle cx="264" cy="240" r="3.2"/><circle cx="273" cy="228" r="3.2"/>
    <circle cx="282" cy="219" r="3.2"/><circle cx="292" cy="211" r="3.2"/><circle cx="301" cy="198" r="3.2"/>
    <circle cx="310" cy="192" r="3.2"/><circle cx="320" cy="180" r="3.2"/><circle cx="329" cy="172" r="3.2"/>
    <circle cx="338" cy="161" r="3.2"/><circle cx="348" cy="155" r="3.2"/><circle cx="357" cy="143" r="3.2"/>
    <circle cx="366" cy="134" r="3.2"/><circle cx="376" cy="127" r="3.2"/><circle cx="385" cy="115" r="3.2"/>
    <circle cx="394" cy="107" r="3.2"/><circle cx="404" cy="96" r="3.2"/><circle cx="413" cy="88" r="3.2"/>
    <circle cx="435" cy="77" r="3.2"/><circle cx="450" cy="70" r="3.2"/><circle cx="470" cy="62" r="3.2"/>
    <circle cx="490" cy="57" r="3.2"/><circle cx="510" cy="53" r="3.2"/><circle cx="535" cy="51" r="3.2"/>
  </g>

  <!-- Scatter points — DQPSK (teal) -->
  <g fill="#0891b2" opacity="0.55" clip-path="url(#rs_clip)">
    <circle cx="88" cy="425" r="3.2"/><circle cx="98" cy="415" r="3.2"/><circle cx="107" cy="406" r="3.2"/>
    <circle cx="117" cy="394" r="3.2"/><circle cx="126" cy="387" r="3.2"/><circle cx="136" cy="374" r="3.2"/>
    <circle cx="145" cy="367" r="3.2"/><circle cx="155" cy="355" r="3.2"/><circle cx="164" cy="347" r="3.2"/>
    <circle cx="173" cy="336" r="3.2"/><circle cx="183" cy="328" r="3.2"/><circle cx="192" cy="319" r="3.2"/>
    <circle cx="201" cy="307" r="3.2"/><circle cx="211" cy="300" r="3.2"/><circle cx="220" cy="288" r="3.2"/>
    <circle cx="229" cy="280" r="3.2"/><circle cx="239" cy="268" r="3.2"/><circle cx="248" cy="260" r="3.2"/>
    <circle cx="258" cy="249" r="3.2"/><circle cx="267" cy="238" r="3.2"/><circle cx="276" cy="231" r="3.2"/>
    <circle cx="286" cy="220" r="3.2"/><circle cx="295" cy="210" r="3.2"/><circle cx="304" cy="202" r="3.2"/>
    <circle cx="314" cy="189" r="3.2"/><circle cx="323" cy="182" r="3.2"/><circle cx="332" cy="170" r="3.2"/>
    <circle cx="342" cy="162" r="3.2"/><circle cx="351" cy="150" r="3.2"/><circle cx="360" cy="144" r="3.2"/>
    <circle cx="370" cy="132" r="3.2"/><circle cx="379" cy="122" r="3.2"/><circle cx="388" cy="114" r="3.2"/>
    <circle cx="398" cy="104" r="3.2"/><circle cx="407" cy="95" r="3.2"/><circle cx="416" cy="86" r="3.2"/>
    <circle cx="438" cy="76" r="3.2"/><circle cx="455" cy="68" r="3.2"/><circle cx="475" cy="61" r="3.2"/>
  </g>

  <!-- Scatter points — 8QAM (green) -->
  <g fill="#059669" opacity="0.55" clip-path="url(#rs_clip)">
    <circle cx="84" cy="430" r="3.2"/><circle cx="96" cy="416" r="3.2"/><circle cx="108" cy="403" r="3.2"/>
    <circle cx="118" cy="393" r="3.2"/><circle cx="128" cy="383" r="3.2"/><circle cx="140" cy="372" r="3.2"/>
    <circle cx="150" cy="360" r="3.2"/><circle cx="160" cy="352" r="3.2"/><circle cx="172" cy="341" r="3.2"/>
    <circle cx="182" cy="331" r="3.2"/><circle cx="192" cy="320" r="3.2"/><circle cx="204" cy="311" r="3.2"/>
    <circle cx="214" cy="297" r="3.2"/><circle cx="224" cy="287" r="3.2"/><circle cx="236" cy="277" r="3.2"/>
    <circle cx="246" cy="266" r="3.2"/><circle cx="256" cy="254" r="3.2"/><circle cx="268" cy="245" r="3.2"/>
    <circle cx="278" cy="234" r="3.2"/><circle cx="288" cy="224" r="3.2"/><circle cx="300" cy="213" r="3.2"/>
    <circle cx="310" cy="200" r="3.2"/><circle cx="322" cy="192" r="3.2"/><circle cx="332" cy="181" r="3.2"/>
    <circle cx="342" cy="169" r="3.2"/><circle cx="354" cy="160" r="3.2"/><circle cx="364" cy="148" r="3.2"/>
    <circle cx="374" cy="138" r="3.2"/><circle cx="386" cy="128" r="3.2"/><circle cx="396" cy="117" r="3.2"/>
    <circle cx="406" cy="105" r="3.2"/><circle cx="418" cy="94" r="3.2"/><circle cx="428" cy="85" r="3.2"/>
    <circle cx="442" cy="75" r="3.2"/><circle cx="462" cy="66" r="3.2"/><circle cx="485" cy="58" r="3.2"/>
  </g>

  <!-- Scatter points — 16QAM (red) -->
  <g fill="#dc2626" opacity="0.55" clip-path="url(#rs_clip)">
    <circle cx="86" cy="427" r="3.2"/><circle cx="99" cy="414" r="3.2"/><circle cx="112" cy="404" r="3.2"/>
    <circle cx="122" cy="391" r="3.2"/><circle cx="134" cy="382" r="3.2"/><circle cx="144" cy="370" r="3.2"/>
    <circle cx="156" cy="361" r="3.2"/><circle cx="166" cy="349" r="3.2"/><circle cx="178" cy="340" r="3.2"/>
    <circle cx="188" cy="329" r="3.2"/><circle cx="200" cy="318" r="3.2"/><circle cx="210" cy="306" r="3.2"/>
    <circle cx="222" cy="296" r="3.2"/><circle cx="232" cy="285" r="3.2"/><circle cx="244" cy="275" r="3.2"/>
    <circle cx="254" cy="262" r="3.2"/><circle cx="266" cy="253" r="3.2"/><circle cx="276" cy="242" r="3.2"/>
    <circle cx="288" cy="231" r="3.2"/><circle cx="298" cy="219" r="3.2"/><circle cx="310" cy="209" r="3.2"/>
    <circle cx="320" cy="198" r="3.2"/><circle cx="332" cy="186" r="3.2"/><circle cx="344" cy="176" r="3.2"/>
    <circle cx="354" cy="165" r="3.2"/><circle cx="366" cy="155" r="3.2"/><circle cx="376" cy="143" r="3.2"/>
    <circle cx="388" cy="133" r="3.2"/><circle cx="398" cy="121" r="3.2"/><circle cx="410" cy="110" r="3.2"/>
    <circle cx="420" cy="100" r="3.2"/><circle cx="432" cy="89" r="3.2"/><circle cx="444" cy="80" r="3.2"/>
    <circle cx="458" cy="71" r="3.2"/><circle cx="478" cy="63" r="3.2"/><circle cx="498" cy="55" r="3.2"/>
  </g>

  <!-- Legend -->
  <rect x="390" y="385" width="145" height="90" rx="6" fill="#fff" stroke="#e2e8f0" stroke-width="1" opacity="0.95"/>
  <circle cx="405" cy="400" r="4" fill="#2563eb"/><text x="415" y="404" font-size="9" fill="#475569">OOK</text>
  <circle cx="405" cy="416" r="4" fill="#2563eb"/><text x="415" y="420" font-size="9" fill="#475569">DPSK</text>
  <circle cx="405" cy="432" r="4" fill="#0891b2"/><text x="415" y="436" font-size="9" fill="#475569">DQPSK</text>
  <circle cx="405" cy="448" r="4" fill="#059669"/><text x="415" y="452" font-size="9" fill="#475569">8QAM</text>
  <circle cx="405" cy="464" r="4" fill="#dc2626"/><text x="415" y="468" font-size="9" fill="#475569">16QAM</text>
  <line x1="470" y1="395" x2="490" y2="395" stroke="#1e293b" stroke-width="1.2" stroke-dasharray="4,3"/>
  <text x="496" y="399" font-size="9" fill="#475569">Ideal</text>

  <!-- Metric box -->
  <rect x="90" y="55" width="130" height="52" rx="6" fill="#eff6ff" stroke="#2563eb" stroke-width="1" opacity="0.9"/>
  <text x="100" y="72" font-size="10" font-weight="600" fill="#1e3a8a">MAE  = 0.38 dB</text>
  <text x="100" y="86" font-size="10" font-weight="600" fill="#1e3a8a">RMSE = 0.52 dB</text>
  <text x="100" y="100" font-size="10" font-weight="600" fill="#1e3a8a">R²   = 0.9971</text>
</svg>
