<svg xmlns="http://www.w3.org/2000/svg" viewBox="0 0 600 380" font-family="Segoe UI, Arial, sans-serif">
  <defs>
    <linearGradient id="ed_bg" x1="0%" y1="0%" x2="0%" y2="100%">
      <stop offset="0%" style="stop-color:#f8fafc"/><stop offset="100%" style="stop-color:#f1f5f9"/>
    </linearGradient>
  </defs>
  <rect width="600" height="380" rx="12" fill="url(#ed_bg)"/>

  <text x="310" y="28" text-anchor="middle" font-size="15" font-weight="700" fill="#1e293b">OSNR Prediction Error Distribution</text>
  <text x="310" y="44" text-anchor="middle" font-size="10" fill="#64748b">Mean = 0.02 dB | Std = 0.52 dB | Near-zero bias</text>

  <!-- Plot area -->
  <rect x="70" y="55" width="480" height="260" fill="#fff" stroke="#e2e8f0" stroke-width="1" rx="4"/>

  <!-- Grid -->
  <g stroke="#f1f5f9" stroke-width="0.8">
    <line x1="70" y1="120" x2="550" y2="120"/><line x1="70" y1="185" x2="550" y2="185"/>
    <line x1="70" y1="250" x2="550" y2="250"/>
  </g>

  <!-- Y-axis (Count) -->
  <text x="63" y="60" text-anchor="end" font-size="8" fill="#94a3b8">120</text>
  <text x="63" y="120" text-anchor="end" font-size="8" fill="#94a3b8">90</text>
  <text x="63" y="185" text-anchor="end" font-size="8" fill="#94a3b8">60</text>
  <text x="63" y="250" text-anchor="end" font-size="8" fill="#94a3b8">30</text>
  <text x="63" y="318" text-anchor="end" font-size="8" fill="#94a3b8">0</text>
  <text x="20" y="185" text-anchor="middle" font-size="10" fill="#475569" transform="rotate(-90,20,185)">Count</text>

  <!-- X-axis (Error dB) -->
  <text x="70" y="332" text-anchor="middle" font-size="8" fill="#94a3b8">-2.0</text>
  <text x="150" y="332" text-anchor="middle" font-size="8" fill="#94a3b8">-1.5</text>
  <text x="230" y="332" text-anchor="middle" font-size="8" fill="#94a3b8">-1.0</text>
  <text x="310" y="332" text-anchor="middle" font-size="8" fill="#94a3b8">-0.5</text>
  <text x="390" y="332" text-anchor="middle" font-size="8" fill="#94a3b8">0.5</text>
  <text x="470" y="332" text-anchor="middle" font-size="8" fill="#94a3b8">1.0</text>
  <text x="550" y="332" text-anchor="middle" font-size="8" fill="#94a3b8">1.5</text>
  <text x="310" y="352" text-anchor="middle" font-size="11" fill="#475569">OSNR Prediction Error (dB)</text>

  <!-- Zero line -->
  <line x1="350" y1="55" x2="350" y2="315" stroke="#dc2626" stroke-width="1.5" stroke-dasharray="6,4" opacity="0.6"/>
  <text x="354" y="68" font-size="8" fill="#dc2626">0</text>

  <!-- Histogram bars (symmetric, bell-shaped centered near 0) -->
  <g fill="#2563eb" opacity="0.7">
    <rect x="78" y="308" width="16" height="7" rx="1"/>
    <rect x="98" y="305" width="16" height="10" rx="1"/>
    <rect x="118" y="300" width="16" height="15" rx="1"/>
    <rect x="138" y="292" width="16" height="23" rx="1"/>
    <rect x="158" y="280" width="16" height="35" rx="1"/>
    <rect x="178" y="264" width="16" height="51" rx="1"/>
    <rect x="198" y="242" width="16" height="73" rx="1"/>
    <rect x="218" y="216" width="16" height="99" rx="1"/>
    <rect x="238" y="185" width="16" height="130" rx="1"/>
    <rect x="258" y="150" width="16" height="165" rx="1"/>
    <rect x="278" y="110" width="16" height="205" rx="1"/>
    <rect x="298" y="80" width="16" height="235" rx="1"/>
    <rect x="318" y="62" width="16" height="253" rx="1"/>
    <rect x="338" y="58" width="16" height="257" rx="1"/>
    <rect x="358" y="65" width="16" height="250" rx="1"/>
    <rect x="378" y="85" width="16" height="230" rx="1"/>
    <rect x="398" y="118" width="16" height="197" rx="1"/>
    <rect x="418" y="155" width="16" height="160" rx="1"/>
    <rect x="438" y="195" width="16" height="120" rx="1"/>
    <rect x="458" y="228" width="16" height="87" rx="1"/>
    <rect x="478" y="255" width="16" height="60" rx="1"/>
    <rect x="498" y="275" width="16" height="40" rx="1"/>
    <rect x="518" y="290" width="16" height="25" rx="1"/>
    <rect x="538" y="300" width="16" height="15" rx="1"/>
  </g>

  <!-- Gaussian overlay hint -->
  <path d="M78 311 Q130 295 180 270 Q230 225 280 140 Q310 82 340 60 Q370 80 400 135 Q440 210 480 265 Q510 290 540 305 Q550 310 555 312" fill="none" stroke="#1e3a8a" stroke-width="1.5" stroke-dasharray="5,3" opacity="0.5"/>

  <!-- Stats box -->
  <rect x="420" y="60" width="120" height="50" rx="6" fill="#eff6ff" stroke="#2563eb" stroke-width="1" opacity="0.9"/>
  <text x="480" y="78" text-anchor="middle" font-size="9" font-weight="600" fill="#1e3a8a">μ = +0.02 dB</text>
  <text x="480" y="93" text-anchor="middle" font-size="9" font-weight="600" fill="#1e3a8a">σ = 0.52 dB</text>
  <text x="480" y="106" text-anchor="middle" font-size="8" fill="#2563eb">Near-zero bias</text>

  <text x="310" y="374" text-anchor="middle" font-size="9" fill="#64748b">Approximately Gaussian distribution centered near zero — unbiased estimator</text>
</svg>
