<svg xmlns="http://www.w3.org/2000/svg" viewBox="0 0 650 380" font-family="Segoe UI, Arial, sans-serif">
  <defs>
    <linearGradient id="ov_bg" x1="0%" y1="0%" x2="0%" y2="100%">
      <stop offset="0%" style="stop-color:#f8fafc"/><stop offset="100%" style="stop-color:#f1f5f9"/>
    </linearGradient>
    <clipPath id="ov_clip"><rect x="80" y="50" width="510" height="250"/></clipPath>
  </defs>
  <rect width="650" height="380" rx="12" fill="url(#ov_bg)"/>

  <text x="335" y="28" text-anchor="middle" font-size="15" font-weight="700" fill="#1e293b">OSNR Estimation Error vs. True OSNR Level</text>
  <text x="335" y="44" text-anchor="middle" font-size="10" fill="#64748b">Mean Absolute Error binned by 1 dB OSNR intervals</text>

  <!-- Plot area -->
  <rect x="80" y="50" width="510" height="250" fill="#fff" stroke="#e2e8f0" stroke-width="1" rx="4"/>

  <!-- Grid -->
  <g stroke="#f1f5f9" stroke-width="0.8">
    <line x1="80" y1="100" x2="590" y2="100"/><line x1="80" y1="150" x2="590" y2="150"/>
    <line x1="80" y1="200" x2="590" y2="200"/><line x1="80" y1="250" x2="590" y2="250"/>
  </g>

  <!-- Y-axis -->
  <text x="72" y="54" text-anchor="end" font-size="9" fill="#94a3b8">1.0</text>
  <text x="72" y="104" text-anchor="end" font-size="9" fill="#94a3b8">0.8</text>
  <text x="72" y="154" text-anchor="end" font-size="9" fill="#94a3b8">0.6</text>
  <text x="72" y="204" text-anchor="end" font-size="9" fill="#94a3b8">0.4</text>
  <text x="72" y="254" text-anchor="end" font-size="9" fill="#94a3b8">0.2</text>
  <text x="72" y="304" text-anchor="end" font-size="9" fill="#94a3b8">0.0</text>
  <text x="22" y="175" text-anchor="middle" font-size="11" fill="#475569" transform="rotate(-90,22,175)">MAE (dB)</text>

  <!-- X-axis -->
  <text x="80" y="318" text-anchor="middle" font-size="9" fill="#94a3b8">5</text>
  <text x="182" y="318" text-anchor="middle" font-size="9" fill="#94a3b8">10</text>
  <text x="284" y="318" text-anchor="middle" font-size="9" fill="#94a3b8">15</text>
  <text x="386" y="318" text-anchor="middle" font-size="9" fill="#94a3b8">20</text>
  <text x="488" y="318" text-anchor="middle" font-size="9" fill="#94a3b8">25</text>
  <text x="590" y="318" text-anchor="middle" font-size="9" fill="#94a3b8">30</text>
  <text x="335" y="340" text-anchor="middle" font-size="11" fill="#475569">True OSNR (dB)</text>

  <!-- 0.5 dB threshold -->
  <line x1="80" y1="175" x2="590" y2="175" stroke="#f59e0b" stroke-width="1.2" stroke-dasharray="6,4" opacity="0.6"/>
  <text x="595" y="179" font-size="8" fill="#f59e0b">0.5 dB</text>

  <!-- Fill area under curve -->
  <polygon points="100,138 121,152 142,168 162,185 182,200 202,208 222,215 243,222 263,228 284,232 304,236 324,240 345,244 365,248 386,252 406,256 427,258 447,260 467,262 488,264 508,266 529,268 549,270 570,272 590,272 590,300 100,300" fill="#3b82f6" opacity="0.08" clip-path="url(#ov_clip)"/>

  <!-- Line curve -->
  <polyline points="100,138 121,152 142,168 162,185 182,200 202,208 222,215 243,222 263,228 284,232 304,236 324,240 345,244 365,248 386,252 406,256 427,258 447,260 467,262 488,264 508,266 529,268 549,270 570,272" fill="none" stroke="#2563eb" stroke-width="2.5" stroke-linecap="round" clip-path="url(#ov_clip)"/>

  <!-- Data points -->
  <g fill="#fff" stroke="#2563eb" stroke-width="2">
    <circle cx="100" cy="138" r="4"/><circle cx="121" cy="152" r="4"/><circle cx="142" cy="168" r="4"/>
    <circle cx="162" cy="185" r="4"/><circle cx="182" cy="200" r="4"/><circle cx="202" cy="208" r="4"/>
    <circle cx="222" cy="215" r="4"/><circle cx="243" cy="222" r="4"/><circle cx="263" cy="228" r="4"/>
    <circle cx="284" cy="232" r="4"/><circle cx="304" cy="236" r="4"/><circle cx="324" cy="240" r="4"/>
    <circle cx="345" cy="244" r="4"/><circle cx="365" cy="248" r="4"/><circle cx="386" cy="252" r="4"/>
    <circle cx="406" cy="256" r="4"/><circle cx="427" cy="258" r="4"/><circle cx="447" cy="260" r="4"/>
    <circle cx="467" cy="262" r="4"/><circle cx="488" cy="264" r="4"/><circle cx="508" cy="266" r="4"/>
    <circle cx="529" cy="268" r="4"/><circle cx="549" cy="270" r="4"/><circle cx="570" cy="272" r="4"/>
  </g>

  <!-- Annotation -->
  <rect x="110" y="58" width="185" height="35" rx="6" fill="#eff6ff" stroke="#3b82f6" stroke-width="1" opacity="0.9"/>
  <text x="202" y="73" text-anchor="middle" font-size="9" fill="#1e40af">Low OSNR (5-10 dB): MAE 0.6-0.8 dB</text>
  <text x="202" y="86" text-anchor="middle" font-size="9" fill="#1e40af">High OSNR (20-30 dB): MAE 0.2-0.3 dB</text>

  <text x="335" y="370" text-anchor="middle" font-size="9" fill="#64748b">Performance improves at higher OSNR values where signal-to-noise separation is clearer</text>
</svg>
