<svg xmlns="http://www.w3.org/2000/svg" viewBox="0 0 750 380" font-family="Segoe UI, Arial, sans-serif">
  <defs>
    <linearGradient id="cr_bg" x1="0%" y1="0%" x2="0%" y2="100%">
      <stop offset="0%" style="stop-color:#f8fafc"/><stop offset="100%" style="stop-color:#f1f5f9"/>
    </linearGradient>
    <filter id="cr_sh" x="-2%" y="-3%" width="104%" height="108%">
      <feDropShadow dx="0" dy="2" stdDeviation="2" flood-opacity="0.08"/>
    </filter>
  </defs>
  <rect width="750" height="380" rx="14" fill="url(#cr_bg)"/>
  <text x="375" y="28" text-anchor="middle" font-size="15" font-weight="700" fill="#1e293b">Cross-Symbol-Rate Generalisation Study</text>
  <text x="375" y="44" text-anchor="middle" font-size="10" fill="#64748b">4 train/test configurations — matched vs cross-rate performance (paper Fig. 24)</text>

  <!-- ===== LEFT: OSNR RMSE ===== -->
  <text x="195" y="70" text-anchor="middle" font-size="12" font-weight="600" fill="#475569">(a) OSNR RMSE (dB)</text>
  <rect x="45" y="80" width="300" height="255" fill="#fff" stroke="#e2e8f0" stroke-width="1" rx="4"/>
  <g stroke="#f1f5f9" stroke-width="0.8">
    <line x1="45" y1="131" x2="345" y2="131"/><line x1="45" y1="182" x2="345" y2="182"/>
    <line x1="45" y1="233" x2="345" y2="233"/><line x1="45" y1="284" x2="345" y2="284"/>
  </g>
  <text x="38" y="84" text-anchor="end" font-size="8" fill="#94a3b8">2.0</text>
  <text x="38" y="131" text-anchor="end" font-size="8" fill="#94a3b8">1.5</text>
  <text x="38" y="182" text-anchor="end" font-size="8" fill="#94a3b8">1.0</text>
  <text x="38" y="233" text-anchor="end" font-size="8" fill="#94a3b8">0.5</text>
  <text x="38" y="284" text-anchor="end" font-size="8" fill="#94a3b8">0.0</text>

  <!-- Bars -->
  <g filter="url(#cr_sh)">
    <!-- 28→28: 0.85 -->
    <rect x="65" y="183" width="55" height="152" rx="5" fill="#3b82f6"/>
    <!-- 64→64: 0.92 -->
    <rect x="132" y="176" width="55" height="159" rx="5" fill="#6366f1"/>
    <!-- 28→64: 1.45 -->
    <rect x="199" y="121" width="55" height="214" rx="5" fill="#f97316"/>
    <!-- 64→28: 1.35 -->
    <rect x="266" y="131" width="55" height="204" rx="5" fill="#fb923c"/>
  </g>
  <text x="92" y="176" text-anchor="middle" font-size="11" font-weight="700" fill="#fff">0.85</text>
  <text x="159" y="169" text-anchor="middle" font-size="11" font-weight="700" fill="#fff">0.92</text>
  <text x="226" y="114" text-anchor="middle" font-size="11" font-weight="700" fill="#fff">1.45</text>
  <text x="293" y="124" text-anchor="middle" font-size="11" font-weight="700" fill="#fff">1.35</text>

  <!-- ===== RIGHT: MFI Accuracy ===== -->
  <text x="570" y="70" text-anchor="middle" font-size="12" font-weight="600" fill="#475569">(b) MFI Accuracy (%)</text>
  <rect x="405" y="80" width="300" height="255" fill="#fff" stroke="#e2e8f0" stroke-width="1" rx="4"/>
  <g stroke="#f1f5f9" stroke-width="0.8">
    <line x1="405" y1="131" x2="705" y2="131"/><line x1="405" y1="182" x2="705" y2="182"/>
    <line x1="405" y1="233" x2="705" y2="233"/><line x1="405" y1="284" x2="705" y2="284"/>
  </g>
  <text x="398" y="84" text-anchor="end" font-size="8" fill="#94a3b8">100</text>
  <text x="398" y="131" text-anchor="end" font-size="8" fill="#94a3b8">95</text>
  <text x="398" y="182" text-anchor="end" font-size="8" fill="#94a3b8">90</text>
  <text x="398" y="233" text-anchor="end" font-size="8" fill="#94a3b8">85</text>
  <text x="398" y="284" text-anchor="end" font-size="8" fill="#94a3b8">80</text>

  <g filter="url(#cr_sh)">
    <!-- 28→28: 98.1% -->
    <rect x="425" y="99" width="55" height="236" rx="5" fill="#10b981"/>
    <!-- 64→64: 97.5% -->
    <rect x="492" y="105" width="55" height="230" rx="5" fill="#34d399"/>
    <!-- 28→64: 88.2% -->
    <rect x="559" y="201" width="55" height="134" rx="5" fill="#f97316"/>
    <!-- 64→28: 89.5% -->
    <rect x="626" y="188" width="55" height="147" rx="5" fill="#fb923c"/>
  </g>
  <text x="452" y="92" text-anchor="middle" font-size="11" font-weight="700" fill="#059669">98.1</text>
  <text x="519" y="98" text-anchor="middle" font-size="11" font-weight="700" fill="#059669">97.5</text>
  <text x="586" y="194" text-anchor="middle" font-size="11" font-weight="700" fill="#fff">88.2</text>
  <text x="653" y="181" text-anchor="middle" font-size="11" font-weight="700" fill="#fff">89.5</text>

  <!-- X-axis labels -->
  <g font-size="8" fill="#475569" text-anchor="middle">
    <text x="92" y="347">Train: 28</text><text x="92" y="358">Test: 28</text>
    <text x="159" y="347">Train: 64</text><text x="159" y="358">Test: 64</text>
    <text x="226" y="347" fill="#ea580c" font-weight="600">Train: 28</text><text x="226" y="358" fill="#ea580c" font-weight="600">Test: 64</text>
    <text x="293" y="347" fill="#ea580c" font-weight="600">Train: 64</text><text x="293" y="358" fill="#ea580c" font-weight="600">Test: 28</text>
    <text x="452" y="347">Train: 28</text><text x="452" y="358">Test: 28</text>
    <text x="519" y="347">Train: 64</text><text x="519" y="358">Test: 64</text>
    <text x="586" y="347" fill="#ea580c" font-weight="600">Train: 28</text><text x="586" y="358" fill="#ea580c" font-weight="600">Test: 64</text>
    <text x="653" y="347" fill="#ea580c" font-weight="600">Train: 64</text><text x="653" y="358" fill="#ea580c" font-weight="600">Test: 28</text>
  </g>

  <text x="375" y="376" text-anchor="middle" font-size="9" fill="#64748b">Cross-rate scenarios show moderate degradation — mixed-rate training recommended for deployment</text>
</svg>
