<svg xmlns="http://www.w3.org/2000/svg" viewBox="0 0 920 300" font-family="Segoe UI, Arial, sans-serif">
  <defs>
    <linearGradient id="ao_bg" x1="0%" y1="0%" x2="0%" y2="100%">
      <stop offset="0%" style="stop-color:#f8fafc"/><stop offset="100%" style="stop-color:#f1f5f9"/>
    </linearGradient>
  </defs>
  <rect width="920" height="300" rx="14" fill="url(#ao_bg)"/>
  <text x="460" y="24" text-anchor="middle" font-size="15" font-weight="700" fill="#0f172a">16-QAM AAH Evolution Under Varying OSNR at 28 GBd</text>

  <!-- ===== 30 dB ===== -->
  <rect x="15" y="42" width="210" height="245" fill="#fff" stroke="#e2e8f0" stroke-width="1" rx="4"/>
  <text x="120" y="58" text-anchor="middle" font-size="11" font-weight="700" fill="#0891b2">OSNR = 30 dB</text>
  <text x="120" y="70" text-anchor="middle" font-size="8" fill="#059669">Sharp peaks</text>
  <g fill="#0891b2" opacity="0.8">
    <rect x="28" y="248" width="6" height="4"/><rect x="36" y="248" width="6" height="4"/>
    <rect x="44" y="246" width="6" height="6"/><rect x="52" y="240" width="6" height="12"/>
    <rect x="60" y="225" width="6" height="27"/><rect x="68" y="165" width="6" height="87"/>
    <rect x="76" y="90" width="6" height="162"/><rect x="84" y="82" width="6" height="170"/>
    <rect x="92" y="155" width="6" height="97"/><rect x="100" y="220" width="6" height="32"/>
    <rect x="108" y="238" width="6" height="14"/><rect x="116" y="215" width="6" height="37"/>
    <rect x="124" y="135" width="6" height="117"/><rect x="132" y="78" width="6" height="174"/>
    <rect x="140" y="75" width="6" height="177"/><rect x="148" y="128" width="6" height="124"/>
    <rect x="156" y="198" width="6" height="54"/><rect x="164" y="232" width="6" height="20"/>
    <rect x="172" y="210" width="6" height="42"/><rect x="180" y="142" width="6" height="110"/>
    <rect x="188" y="88" width="6" height="164"/><rect x="196" y="105" width="6" height="147"/>
  </g>

  <!-- ===== 22 dB ===== -->
  <rect x="240" y="42" width="210" height="245" fill="#fff" stroke="#e2e8f0" stroke-width="1" rx="4"/>
  <text x="345" y="58" text-anchor="middle" font-size="11" font-weight="700" fill="#0891b2">OSNR = 22 dB</text>
  <text x="345" y="70" text-anchor="middle" font-size="8" fill="#94a3b8">Moderate broadening</text>
  <g fill="#0891b2" opacity="0.65">
    <rect x="253" y="246" width="6" height="6"/><rect x="261" y="240" width="6" height="12"/>
    <rect x="269" y="228" width="6" height="24"/><rect x="277" y="205" width="6" height="47"/>
    <rect x="285" y="172" width="6" height="80"/><rect x="293" y="135" width="6" height="117"/>
    <rect x="301" y="108" width="6" height="144"/><rect x="309" y="115" width="6" height="137"/>
    <rect x="317" y="140" width="6" height="112"/><rect x="325" y="158" width="6" height="94"/>
    <rect x="333" y="145" width="6" height="107"/><rect x="341" y="118" width="6" height="134"/>
    <rect x="349" y="100" width="6" height="152"/><rect x="357" y="108" width="6" height="144"/>
    <rect x="365" y="130" width="6" height="122"/><rect x="373" y="148" width="6" height="104"/>
    <rect x="381" y="128" width="6" height="124"/><rect x="389" y="110" width="6" height="142"/>
    <rect x="397" y="135" width="6" height="117"/><rect x="405" y="175" width="6" height="77"/>
    <rect x="413" y="215" width="6" height="37"/><rect x="421" y="240" width="6" height="12"/>
  </g>

  <!-- ===== 16 dB ===== -->
  <rect x="465" y="42" width="210" height="245" fill="#fff" stroke="#e2e8f0" stroke-width="1" rx="4"/>
  <text x="570" y="58" text-anchor="middle" font-size="11" font-weight="700" fill="#0891b2">OSNR = 16 dB</text>
  <text x="570" y="70" text-anchor="middle" font-size="8" fill="#ea580c">Peaks merging</text>
  <g fill="#0891b2" opacity="0.5">
    <rect x="478" y="242" width="6" height="10"/><rect x="486" y="232" width="6" height="20"/>
    <rect x="494" y="215" width="6" height="37"/><rect x="502" y="192" width="6" height="60"/>
    <rect x="510" y="168" width="6" height="84"/><rect x="518" y="145" width="6" height="107"/>
    <rect x="526" y="128" width="6" height="124"/><rect x="534" y="118" width="6" height="134"/>
    <rect x="542" y="115" width="6" height="137"/><rect x="550" y="112" width="6" height="140"/>
    <rect x="558" y="110" width="6" height="142"/><rect x="566" y="108" width="6" height="144"/>
    <rect x="574" y="110" width="6" height="142"/><rect x="582" y="115" width="6" height="137"/>
    <rect x="590" y="122" width="6" height="130"/><rect x="598" y="132" width="6" height="120"/>
    <rect x="606" y="148" width="6" height="104"/><rect x="614" y="172" width="6" height="80"/>
    <rect x="622" y="200" width="6" height="52"/><rect x="630" y="225" width="6" height="27"/>
    <rect x="638" y="240" width="6" height="12"/><rect x="646" y="248" width="6" height="4"/>
  </g>

  <!-- ===== 12 dB ===== -->
  <rect x="690" y="42" width="210" height="245" fill="#fff" stroke="#e2e8f0" stroke-width="1" rx="4"/>
  <text x="795" y="58" text-anchor="middle" font-size="11" font-weight="700" fill="#0891b2">OSNR = 12 dB</text>
  <text x="795" y="70" text-anchor="middle" font-size="8" fill="#dc2626">Fully merged</text>
  <g fill="#0891b2" opacity="0.35">
    <rect x="703" y="238" width="6" height="14"/><rect x="711" y="225" width="6" height="27"/>
    <rect x="719" y="208" width="6" height="44"/><rect x="727" y="188" width="6" height="64"/>
    <rect x="735" y="168" width="6" height="84"/><rect x="743" y="150" width="6" height="102"/>
    <rect x="751" y="138" width="6" height="114"/><rect x="759" y="128" width="6" height="124"/>
    <rect x="767" y="122" width="6" height="130"/><rect x="775" y="118" width="6" height="134"/>
    <rect x="783" y="115" width="6" height="137"/><rect x="791" y="115" width="6" height="137"/>
    <rect x="799" y="118" width="6" height="134"/><rect x="807" y="122" width="6" height="130"/>
    <rect x="815" y="130" width="6" height="122"/><rect x="823" y="142" width="6" height="110"/>
    <rect x="831" y="158" width="6" height="94"/><rect x="839" y="178" width="6" height="74"/>
    <rect x="847" y="202" width="6" height="50"/><rect x="855" y="222" width="6" height="30"/>
    <rect x="863" y="238" width="6" height="14"/><rect x="871" y="246" width="6" height="6"/>
  </g>

  <!-- Arrow showing OSNR decrease -->
  <line x1="150" y1="293" x2="850" y2="293" stroke="#dc2626" stroke-width="1.5" marker-end="url(#ao_arr)"/>
  <defs><marker id="ao_arr" markerWidth="8" markerHeight="6" refX="8" refY="3" orient="auto"><polygon points="0 0,8 3,0 6" fill="#dc2626"/></marker></defs>
  <text x="500" y="290" text-anchor="middle" font-size="9" font-weight="600" fill="#dc2626">Decreasing OSNR → peaks broaden and merge → reduced discriminability</text>
</svg>
