<svg xmlns="http://www.w3.org/2000/svg" viewBox="0 0 780 380" font-family="Segoe UI, Arial, sans-serif">
  <defs>
    <linearGradient id="ab_bg" x1="0%" y1="0%" x2="0%" y2="100%">
      <stop offset="0%" style="stop-color:#f8fafc"/><stop offset="100%" style="stop-color:#f1f5f9"/>
    </linearGradient>
    <linearGradient id="ab_bar1" x1="0%" y1="0%" x2="0%" y2="100%">
      <stop offset="0%" style="stop-color:#2563eb"/><stop offset="100%" style="stop-color:#2563eb"/>
    </linearGradient>
    <linearGradient id="ab_bar2" x1="0%" y1="0%" x2="0%" y2="100%">
      <stop offset="0%" style="stop-color:#059669"/><stop offset="100%" style="stop-color:#059669"/>
    </linearGradient>
    <filter id="ab_sh" x="-3%" y="-3%" width="106%" height="110%">
      <feDropShadow dx="1" dy="2" stdDeviation="2" flood-opacity="0.1"/>
    </filter>
  </defs>
  <rect width="780" height="380" rx="14" fill="url(#ab_bg)"/>
  <text x="390" y="28" text-anchor="middle" font-size="15" font-weight="700" fill="#1e293b">Ablation Study Results at 28 GBd</text>
  <text x="390" y="44" text-anchor="middle" font-size="10" fill="#64748b">Contribution of each architectural component (paper Table V, Fig. 11)</text>

  <!-- ===== LEFT: OSNR RMSE ===== -->
  <text x="205" y="70" text-anchor="middle" font-size="12" font-weight="600" fill="#475569">(a) OSNR RMSE (dB)</text>
  <rect x="50" y="80" width="310" height="260" fill="#fff" stroke="#e2e8f0" stroke-width="1" rx="4"/>
  <g stroke="#f1f5f9" stroke-width="0.8">
    <line x1="50" y1="132" x2="360" y2="132"/><line x1="50" y1="184" x2="360" y2="184"/>
    <line x1="50" y1="236" x2="360" y2="236"/><line x1="50" y1="288" x2="360" y2="288"/>
  </g>
  <text x="43" y="84" text-anchor="end" font-size="8" fill="#94a3b8">1.2</text>
  <text x="43" y="132" text-anchor="end" font-size="8" fill="#94a3b8">1.0</text>
  <text x="43" y="184" text-anchor="end" font-size="8" fill="#94a3b8">0.8</text>
  <text x="43" y="236" text-anchor="end" font-size="8" fill="#94a3b8">0.6</text>
  <text x="43" y="288" text-anchor="end" font-size="8" fill="#94a3b8">0.4</text>
  <text x="43" y="340" text-anchor="end" font-size="8" fill="#94a3b8">0.2</text>

  <!-- Bars (RMSE): Full=0.85, NoCAAM=1.10, MSE=1.05, FixedW=1.02 -->
  <g filter="url(#ab_sh)">
    <rect x="70" y="170" width="55" height="170" rx="4" fill="url(#ab_bar1)"/>
    <rect x="140" y="106" width="55" height="234" rx="4" fill="#93c5fd"/>
    <rect x="210" y="118" width="55" height="222" rx="4" fill="#bfdbfe"/>
    <rect x="280" y="126" width="55" height="214" rx="4" fill="#dbeafe"/>
  </g>
  <!-- Values on bars -->
  <text x="97" y="163" text-anchor="middle" font-size="11" font-weight="700" fill="#fff">0.85</text>
  <text x="167" y="99" text-anchor="middle" font-size="10" font-weight="600" fill="#2563eb">1.10</text>
  <text x="237" y="111" text-anchor="middle" font-size="10" font-weight="600" fill="#2563eb">1.05</text>
  <text x="307" y="119" text-anchor="middle" font-size="10" font-weight="600" fill="#2563eb">1.02</text>

  <!-- ===== RIGHT: MFI Accuracy ===== -->
  <text x="575" y="70" text-anchor="middle" font-size="12" font-weight="600" fill="#475569">(b) MFI Accuracy (%)</text>
  <rect x="420" y="80" width="310" height="260" fill="#fff" stroke="#e2e8f0" stroke-width="1" rx="4"/>
  <g stroke="#f1f5f9" stroke-width="0.8">
    <line x1="420" y1="132" x2="730" y2="132"/><line x1="420" y1="184" x2="730" y2="184"/>
    <line x1="420" y1="236" x2="730" y2="236"/><line x1="420" y1="288" x2="730" y2="288"/>
  </g>
  <text x="413" y="84" text-anchor="end" font-size="8" fill="#94a3b8">100</text>
  <text x="413" y="132" text-anchor="end" font-size="8" fill="#94a3b8">99</text>
  <text x="413" y="184" text-anchor="end" font-size="8" fill="#94a3b8">98</text>
  <text x="413" y="236" text-anchor="end" font-size="8" fill="#94a3b8">97</text>
  <text x="413" y="288" text-anchor="end" font-size="8" fill="#94a3b8">96</text>
  <text x="413" y="340" text-anchor="end" font-size="8" fill="#94a3b8">95</text>

  <!-- Bars (Acc): Full=98.1, NoCAAM=98.1, MSE=97.8, FixedW=97.3 -->
  <g filter="url(#ab_sh)">
    <rect x="440" y="179" width="55" height="161" rx="4" fill="url(#ab_bar2)"/>
    <rect x="510" y="179" width="55" height="161" rx="4" fill="#6ee7b7"/>
    <rect x="580" y="194" width="55" height="146" rx="4" fill="#a7f3d0"/>
    <rect x="650" y="220" width="55" height="120" rx="4" fill="#d1fae5"/>
  </g>
  <text x="467" y="172" text-anchor="middle" font-size="11" font-weight="700" fill="#059669">98.1</text>
  <text x="537" y="172" text-anchor="middle" font-size="10" font-weight="600" fill="#059669">98.1</text>
  <text x="607" y="187" text-anchor="middle" font-size="10" font-weight="600" fill="#059669">97.8</text>
  <text x="677" y="213" text-anchor="middle" font-size="10" font-weight="600" fill="#059669">97.3</text>

  <!-- X-axis labels (shared) -->
  <text x="97" y="355" text-anchor="middle" font-size="8" font-weight="600" fill="#1e293b">Full</text>
  <text x="167" y="355" text-anchor="middle" font-size="8" fill="#475569">No CAAM</text>
  <text x="237" y="355" text-anchor="middle" font-size="8" fill="#475569">MSE Loss</text>
  <text x="307" y="355" text-anchor="middle" font-size="8" fill="#475569">Fixed Wt.</text>
  <text x="467" y="355" text-anchor="middle" font-size="8" font-weight="600" fill="#1e293b">Full</text>
  <text x="537" y="355" text-anchor="middle" font-size="8" fill="#475569">No CAAM</text>
  <text x="607" y="355" text-anchor="middle" font-size="8" fill="#475569">MSE Loss</text>
  <text x="677" y="355" text-anchor="middle" font-size="8" fill="#475569">Fixed Wt.</text>

  <text x="390" y="376" text-anchor="middle" font-size="9" fill="#64748b">CAAM improves OSNR RMSE by 22.7%; uncertainty weighting improves overall task balance</text>
</svg>
