<svg xmlns="http://www.w3.org/2000/svg" viewBox="0 0 560 540" font-family="Segoe UI, Arial, sans-serif">
  <defs>
    <linearGradient id="cm_bg" x1="0%" y1="0%" x2="0%" y2="100%">
      <stop offset="0%" style="stop-color:#f8fafc"/><stop offset="100%" style="stop-color:#f1f5f9"/>
    </linearGradient>
  </defs>
  <rect width="560" height="540" rx="12" fill="url(#cm_bg)"/>

  <text x="280" y="30" text-anchor="middle" font-size="15" font-weight="700" fill="#1e293b">MFI Confusion Matrix</text>
  <text x="280" y="48" text-anchor="middle" font-size="10" fill="#64748b">Overall Accuracy = 99.48% | Macro F1 = 0.9948</text>

  <!-- Matrix -->
  <!-- Cell size: 80x80, starting at (110,80) -->

  <!-- Row 0: OOK -->
  <rect x="110" y="80" width="80" height="80" fill="#1e40af"/><text x="150" y="126" text-anchor="middle" font-size="20" font-weight="700" fill="#fff">153</text>
  <rect x="190" y="80" width="80" height="80" fill="#eff6ff"/><text x="230" y="126" text-anchor="middle" font-size="16" fill="#94a3b8">0</text>
  <rect x="270" y="80" width="80" height="80" fill="#eff6ff"/><text x="310" y="126" text-anchor="middle" font-size="16" fill="#94a3b8">0</text>
  <rect x="350" y="80" width="80" height="80" fill="#eff6ff"/><text x="390" y="126" text-anchor="middle" font-size="16" fill="#94a3b8">0</text>
  <rect x="430" y="80" width="80" height="80" fill="#dbeafe"/><text x="470" y="126" text-anchor="middle" font-size="16" fill="#64748b">1</text>

  <!-- Row 1: DPSK -->
  <rect x="110" y="160" width="80" height="80" fill="#eff6ff"/><text x="150" y="206" text-anchor="middle" font-size="16" fill="#94a3b8">0</text>
  <rect x="190" y="160" width="80" height="80" fill="#1e40af"/><text x="230" y="206" text-anchor="middle" font-size="20" font-weight="700" fill="#fff">152</text>
  <rect x="270" y="160" width="80" height="80" fill="#dbeafe"/><text x="310" y="206" text-anchor="middle" font-size="16" fill="#64748b">1</text>
  <rect x="350" y="160" width="80" height="80" fill="#eff6ff"/><text x="390" y="206" text-anchor="middle" font-size="16" fill="#94a3b8">0</text>
  <rect x="430" y="160" width="80" height="80" fill="#eff6ff"/><text x="470" y="206" text-anchor="middle" font-size="16" fill="#94a3b8">0</text>

  <!-- Row 2: DQPSK -->
  <rect x="110" y="240" width="80" height="80" fill="#eff6ff"/><text x="150" y="286" text-anchor="middle" font-size="16" fill="#94a3b8">0</text>
  <rect x="190" y="240" width="80" height="80" fill="#dbeafe"/><text x="230" y="286" text-anchor="middle" font-size="16" fill="#64748b">1</text>
  <rect x="270" y="240" width="80" height="80" fill="#1e40af"/><text x="310" y="286" text-anchor="middle" font-size="20" font-weight="700" fill="#fff">152</text>
  <rect x="350" y="240" width="80" height="80" fill="#eff6ff"/><text x="390" y="286" text-anchor="middle" font-size="16" fill="#94a3b8">0</text>
  <rect x="430" y="240" width="80" height="80" fill="#eff6ff"/><text x="470" y="286" text-anchor="middle" font-size="16" fill="#94a3b8">0</text>

  <!-- Row 3: 8QAM -->
  <rect x="110" y="320" width="80" height="80" fill="#eff6ff"/><text x="150" y="366" text-anchor="middle" font-size="16" fill="#94a3b8">0</text>
  <rect x="190" y="320" width="80" height="80" fill="#eff6ff"/><text x="230" y="366" text-anchor="middle" font-size="16" fill="#94a3b8">0</text>
  <rect x="270" y="320" width="80" height="80" fill="#eff6ff"/><text x="310" y="366" text-anchor="middle" font-size="16" fill="#94a3b8">0</text>
  <rect x="350" y="320" width="80" height="80" fill="#1e40af"/><text x="390" y="366" text-anchor="middle" font-size="20" font-weight="700" fill="#fff">154</text>
  <rect x="430" y="320" width="80" height="80" fill="#dbeafe"/><text x="470" y="366" text-anchor="middle" font-size="16" fill="#64748b">1</text>

  <!-- Row 4: 16QAM -->
  <rect x="110" y="400" width="80" height="80" fill="#eff6ff"/><text x="150" y="446" text-anchor="middle" font-size="16" fill="#94a3b8">0</text>
  <rect x="190" y="400" width="80" height="80" fill="#eff6ff"/><text x="230" y="446" text-anchor="middle" font-size="16" fill="#94a3b8">0</text>
  <rect x="270" y="400" width="80" height="80" fill="#eff6ff"/><text x="310" y="446" text-anchor="middle" font-size="16" fill="#94a3b8">0</text>
  <rect x="350" y="400" width="80" height="80" fill="#eff6ff"/><text x="390" y="446" text-anchor="middle" font-size="16" fill="#94a3b8">0</text>
  <rect x="430" y="400" width="80" height="80" fill="#1e40af"/><text x="470" y="446" text-anchor="middle" font-size="20" font-weight="700" fill="#fff">151</text>

  <!-- Grid borders -->
  <rect x="110" y="80" width="400" height="400" fill="none" stroke="#cbd5e1" stroke-width="1.5" rx="2"/>
  <g stroke="#cbd5e1" stroke-width="0.8">
    <line x1="190" y1="80" x2="190" y2="480"/><line x1="270" y1="80" x2="270" y2="480"/>
    <line x1="350" y1="80" x2="350" y2="480"/><line x1="430" y1="80" x2="430" y2="480"/>
    <line x1="110" y1="160" x2="510" y2="160"/><line x1="110" y1="240" x2="510" y2="240"/>
    <line x1="110" y1="320" x2="510" y2="320"/><line x1="110" y1="400" x2="510" y2="400"/>
  </g>

  <!-- Column headers (Predicted) -->
  <text x="150" y="72" text-anchor="middle" font-size="10" font-weight="600" fill="#475569">OOK</text>
  <text x="230" y="72" text-anchor="middle" font-size="10" font-weight="600" fill="#475569">DPSK</text>
  <text x="310" y="72" text-anchor="middle" font-size="10" font-weight="600" fill="#475569">DQPSK</text>
  <text x="390" y="72" text-anchor="middle" font-size="10" font-weight="600" fill="#475569">8QAM</text>
  <text x="470" y="72" text-anchor="middle" font-size="10" font-weight="600" fill="#475569">16QAM</text>

  <!-- Row headers (True) -->
  <text x="102" y="126" text-anchor="end" font-size="10" font-weight="600" fill="#475569">OOK</text>
  <text x="102" y="206" text-anchor="end" font-size="10" font-weight="600" fill="#475569">DPSK</text>
  <text x="102" y="286" text-anchor="end" font-size="10" font-weight="600" fill="#475569">DQPSK</text>
  <text x="102" y="366" text-anchor="end" font-size="10" font-weight="600" fill="#475569">8QAM</text>
  <text x="102" y="446" text-anchor="end" font-size="10" font-weight="600" fill="#475569">16QAM</text>

  <!-- Axis labels -->
  <text x="310" y="505" text-anchor="middle" font-size="12" font-weight="600" fill="#475569">Predicted Label</text>
  <text x="30" y="280" text-anchor="middle" font-size="12" font-weight="600" fill="#475569" transform="rotate(-90,30,280)">True Label</text>

  <!-- Per-class accuracy -->
  <text x="310" y="528" text-anchor="middle" font-size="9" fill="#64748b">Per-class: OOK 99.3% | DPSK 99.3% | DQPSK 99.3% | 8QAM 99.4% | 16QAM 100%</text>
</svg>
